# This file uses centimeters as units for non-parametric coordinates.

mtllib Board.mtl
g default
v 129.730491 0.470274 -17.605457
v 133.246773 -10.470273 -17.789738
v -80.516842 0.470274 -32.328655
v -85.726880 -10.470273 -32.676327
v -80.516842 0.470270 30.328663
v -85.726880 -10.470273 30.676334
v 129.730491 0.470274 15.605473
v 133.246773 -10.470274 15.789753
v -121.049984 0.470272 -0.999996
v -132.437771 -10.470274 -0.999996
v 87.728717 -10.470274 -0.999996
v 86.562801 0.470272 -0.999996
v -104.563458 0.470273 -16.037754
v -114.992917 -10.470274 -16.204632
v 97.631225 -10.470274 -11.901096
v 95.921344 0.470274 -12.027218
v 95.921344 0.470274 10.027225
v 97.631225 -10.470274 9.901112
v -114.992917 -10.470274 14.204639
v -104.563458 0.470272 14.037769
v -55.519497 0.470274 -37.341236
v -59.276532 -10.470274 -37.744541
v -88.804501 -10.470274 -20.005795
v -104.175198 -10.470274 -0.999996
v -88.804501 -10.470273 18.005802
v -59.276532 -10.470274 35.744556
v -55.519497 0.470270 35.341251
v -83.425396 0.470273 17.797199
v -97.951764 0.470272 -0.999996
v -83.425396 0.470272 -19.797192
v -25.355053 0.470274 -40.682964
v -27.358761 -10.470274 -41.123348
v -52.078671 -10.470274 -20.005795
v -64.946545 -10.470274 -0.999996
v -52.078671 -10.470273 18.005802
v -27.358761 -10.470273 39.123356
v -25.355053 0.470274 38.682972
v -48.717007 0.470273 17.797199
v -60.878033 0.470272 -0.999996
v -48.717007 0.470272 -19.797192
v 7.448947 0.470271 -41.936108
v 7.351978 -10.470273 -42.390400
v -12.139111 -10.470274 -20.005795
v -22.285153 -10.470274 -0.999996
v -12.139111 -10.470273 18.005802
v 7.351978 -10.470273 40.390415
v 7.448947 0.470273 39.936115
v -10.971447 0.470273 17.797199
v -20.560147 0.470272 -0.999996
v -10.971447 0.470272 -19.797192
v 32.711696 0.470273 -41.100674
v 34.083141 -10.470274 -41.545696
v 18.618816 -10.470274 -20.005795
v 10.568897 -10.470274 -0.999996
v 18.618816 -10.470273 18.005802
v 34.083141 -10.470274 39.545704
v 32.711696 0.470271 39.100681
v 18.096874 0.470273 17.797199
v 10.489154 0.470272 -0.999996
v 18.096874 0.470272 -19.797192
v 58.351642 0.470274 -37.341236
v 61.213405 -10.470274 -37.744541
v 49.835964 -10.470274 -20.005795
v 43.913455 -10.470274 -0.999996
v 49.835956 -10.470273 18.005802
v 61.213405 -10.470274 35.744556
v 58.351642 0.470274 35.341251
v 47.599178 0.470273 17.797199
v 42.002010 0.470272 -0.999996
v 47.599178 0.470272 -19.797192
v 82.106155 0.470274 -32.328655
v 86.348678 -10.470273 -32.676327
v 62.960124 -10.470274 -20.005795
v 55.058719 -10.470274 -0.999996
v 62.960124 -10.470273 18.005802
v 86.348667 -10.470273 30.676334
v 82.106147 0.470274 30.328663
v 60.002399 0.470273 17.797199
v 52.535038 0.470272 -0.999996
v 60.002399 0.470272 -19.797192
v 106.991916 0.470273 -27.687374
v 112.680927 -10.470273 -27.983532
v 86.141658 -10.470274 -15.571110
v 64.225887 -10.470274 -0.999996
v 86.141658 -10.470274 13.571125
v 112.680927 -10.470274 25.983540
v 106.991916 0.470274 25.687382
v 81.910511 0.470272 13.411198
v 61.198627 0.470272 -0.999996
v 81.910511 0.470272 -15.411182
v 143.821194 -4.248930 -19.064167
v 109.061737 -4.248931 -10.754665
v 98.644321 -4.248932 -0.999996
v 109.061737 -4.248932 8.754673
v 143.821194 -4.248930 17.064167
v 118.509899 -4.248932 28.031742
v 90.808452 -4.248931 33.080738
v 64.366252 -4.248932 38.533649
v 35.825313 -4.248932 42.623341
v 7.704227 -4.248931 43.532154
v -28.811352 -4.248931 42.168934
v -62.388714 -4.248932 38.533649
v -90.214367 -4.248931 33.080738
v -125.469296 -4.248931 15.358753
v -143.821194 -4.248932 -0.999996
v -125.469296 -4.248933 -17.358753
v -90.214367 -4.248933 -35.080730
v -62.388714 -4.248932 -40.533649
v -28.811352 -4.248933 -44.168926
v 7.704227 -4.248932 -45.532154
v 35.825313 -4.248931 -44.623333
v 64.366252 -4.248932 -40.533649
v 90.808467 -4.248933 -35.080730
v 118.509899 -4.248932 -30.031734
v 143.821194 -2.295988 -19.064167
v 109.061737 -2.295990 -10.754658
v 98.644321 -2.295990 -0.999996
v 109.061737 -2.295987 8.754673
v 143.821194 -2.295988 17.064182
v 118.509899 -2.295990 28.031742
v 90.808452 -2.295989 33.080738
v 64.366252 -2.295990 38.533649
v 35.825313 -2.295987 42.623341
v 7.704227 -2.295990 43.532154
v -28.811352 -2.295989 42.168934
v -62.388714 -2.295990 38.533649
v -90.214367 -2.295989 33.080738
v -122.789029 -2.295989 15.358753
v -141.140896 -2.295990 -0.999996
v -122.789029 -2.295987 -17.358746
v -90.214367 -2.295987 -35.080730
v -62.388714 -2.295986 -40.533649
v -28.811352 -2.295987 -44.168926
v 7.704227 -2.295987 -45.532154
v 35.825313 -2.295990 -44.623333
v 64.366252 -2.295986 -40.533649
v 90.808467 -2.295987 -35.080730
v 118.509899 -2.295986 -30.031727
v 98.644321 -6.201876 -0.999996
v 109.061737 -6.201875 -10.754658
v 143.821194 -6.201875 -19.064167
v 118.509899 -6.201876 -30.031727
v 90.808467 -6.201875 -35.080730
v 64.366252 -6.201876 -40.533642
v 35.825313 -6.201875 -44.623325
v 7.704227 -6.201874 -45.532146
v -28.811352 -6.201875 -44.168919
v -62.388714 -6.201876 -40.533642
v -90.214367 -6.201875 -35.080730
v -125.469296 -6.201874 -17.358746
v -143.821194 -6.201876 -0.999996
v -125.469296 -6.201875 15.358753
v -90.214367 -6.201874 33.080738
v -62.388714 -6.201875 38.533649
v -28.811352 -6.201875 42.168934
v 7.704227 -6.201875 43.532154
v 35.825313 -6.201876 42.623341
v 64.366252 -6.201875 38.533649
v 90.808452 -6.201874 33.080738
v 118.509899 -6.201875 28.031727
v 143.821194 -6.201876 17.064167
v 109.061737 -6.201876 8.754658
vt 0.375000 0.000000
vt 0.625000 0.000000
vt 0.375000 0.250000
vt 0.625000 0.250000
vt 0.375000 0.500000
vt 0.625000 0.500000
vt 0.375000 0.750000
vt 0.625000 0.750000
vt 0.375000 1.000000
vt 0.625000 1.000000
vt 0.875000 0.000000
vt 0.875000 0.250000
vt 0.125000 0.000000
vt 0.125000 0.250000
vt 0.250000 0.250000
vt 0.375000 0.375000
vt 0.625000 0.375000
vt 0.750000 0.250000
vt 0.625000 0.875000
vt 0.750000 0.000000
vt 0.250000 0.000000
vt 0.375000 0.875000
vt 0.312500 0.250000
vt 0.375000 0.312500
vt 0.625000 0.312500
vt 0.687500 0.250000
vt 0.625000 0.937500
vt 0.687500 0.000000
vt 0.312500 0.000000
vt 0.375000 0.937500
vt 0.187500 0.000000
vt 0.375000 0.812500
vt 0.625000 0.812500
vt 0.812500 0.000000
vt 0.625000 0.437500
vt 0.812500 0.250000
vt 0.187500 0.250000
vt 0.375000 0.437500
vt 0.375000 0.220276
vt 0.625000 0.220276
vt 0.687500 0.220276
vt 0.750000 0.220276
vt 0.812500 0.220276
vt 0.625000 0.529724
vt 0.875000 0.220276
vt 0.125000 0.220276
vt 0.375000 0.529724
vt 0.187500 0.220276
vt 0.250000 0.220276
vt 0.312500 0.220276
vt 0.375000 0.184408
vt 0.625000 0.184408
vt 0.687500 0.184408
vt 0.750000 0.184408
vt 0.812500 0.184408
vt 0.625000 0.565592
vt 0.875000 0.184408
vt 0.125000 0.184408
vt 0.375000 0.565592
vt 0.187500 0.184408
vt 0.250000 0.184408
vt 0.312500 0.184408
vt 0.375000 0.145402
vt 0.625000 0.145402
vt 0.687500 0.145402
vt 0.750000 0.145402
vt 0.812500 0.145402
vt 0.625000 0.604598
vt 0.875000 0.145402
vt 0.125000 0.145402
vt 0.375000 0.604598
vt 0.187500 0.145402
vt 0.250000 0.145402
vt 0.312500 0.145402
vt 0.375000 0.115363
vt 0.625000 0.115363
vt 0.687500 0.115363
vt 0.750000 0.115363
vt 0.812500 0.115363
vt 0.625000 0.634637
vt 0.875000 0.115363
vt 0.125000 0.115363
vt 0.375000 0.634637
vt 0.187500 0.115363
vt 0.250000 0.115363
vt 0.312500 0.115363
vt 0.375000 0.084875
vt 0.625000 0.084875
vt 0.687500 0.084875
vt 0.750000 0.084875
vt 0.812500 0.084875
vt 0.625000 0.665125
vt 0.875000 0.084875
vt 0.125000 0.084875
vt 0.375000 0.665125
vt 0.187500 0.084875
vt 0.250000 0.084875
vt 0.312500 0.084875
vt 0.375000 0.056629
vt 0.625000 0.056629
vt 0.687500 0.056629
vt 0.750000 0.056629
vt 0.812500 0.056629
vt 0.625000 0.693371
vt 0.875000 0.056629
vt 0.125000 0.056629
vt 0.375000 0.693371
vt 0.187500 0.056629
vt 0.250000 0.056629
vt 0.312500 0.056629
vt 0.375000 0.027038
vt 0.625000 0.027038
vt 0.687500 0.027038
vt 0.750000 0.027038
vt 0.812500 0.027038
vt 0.625000 0.722962
vt 0.875000 0.027038
vt 0.125000 0.027038
vt 0.375000 0.722962
vt 0.187500 0.027038
vt 0.250000 0.027038
vt 0.312500 0.027038
vt 0.500000 0.000000
vt 0.500000 1.000000
vt 0.500000 0.937500
vt 0.500000 0.875000
vt 0.500000 0.812500
vt 0.500000 0.750000
vt 0.500000 0.722962
vt 0.500000 0.693371
vt 0.500000 0.665125
vt 0.500000 0.634637
vt 0.500000 0.604598
vt 0.500000 0.565592
vt 0.500000 0.529724
vt 0.500000 0.500000
vt 0.500000 0.437500
vt 0.500000 0.375000
vt 0.500000 0.312500
vt 0.500000 0.250000
vt 0.500000 0.220276
vt 0.500000 0.184408
vt 0.500000 0.145402
vt 0.500000 0.115363
vt 0.500000 0.084875
vt 0.500000 0.056629
vt 0.500000 0.027038
vt 0.437500 0.000000
vt 0.437500 1.000000
vt 0.437500 0.937500
vt 0.437500 0.875000
vt 0.437500 0.812500
vt 0.437500 0.750000
vt 0.437500 0.722962
vt 0.437500 0.693371
vt 0.437500 0.665125
vt 0.437500 0.634637
vt 0.437500 0.604598
vt 0.437500 0.565592
vt 0.437500 0.529724
vt 0.437500 0.500000
vt 0.437500 0.437500
vt 0.437500 0.375000
vt 0.437500 0.312500
vt 0.437500 0.250000
vt 0.437500 0.220276
vt 0.437500 0.184408
vt 0.437500 0.145402
vt 0.437500 0.115363
vt 0.437500 0.084875
vt 0.437500 0.056629
vt 0.437500 0.027038
vt 0.562500 0.875000
vt 0.562500 0.937500
vt 0.562500 0.000000
vt 0.562500 1.000000
vt 0.562500 0.027038
vt 0.562500 0.056629
vt 0.562500 0.084875
vt 0.562500 0.115363
vt 0.562500 0.145402
vt 0.562500 0.184408
vt 0.562500 0.220276
vt 0.562500 0.250000
vt 0.562500 0.312500
vt 0.562500 0.375000
vt 0.562500 0.437500
vt 0.562500 0.500000
vt 0.562500 0.529724
vt 0.562500 0.565592
vt 0.562500 0.604598
vt 0.562500 0.634637
vt 0.562500 0.665125
vt 0.562500 0.693371
vt 0.562500 0.722962
vt 0.562500 0.750000
vt 0.562500 0.812500
vn -0.192309 -0.000000 -0.981334
vn -0.146414 -0.000001 -0.989223
vn -0.137285 -0.452285 -0.881244
vn -0.175713 -0.394110 -0.902110
vn -0.537904 0.307543 0.784905
vn -0.891552 0.452919 0.000000
vn -0.580508 -0.814254 -0.000000
vn -0.406184 -0.713030 0.571492
vn -0.146414 -0.000000 0.989224
vn -0.192309 -0.000000 0.981335
vn -0.175713 -0.394110 0.902110
vn -0.137285 -0.452284 0.881245
vn 1.000000 0.000001 -0.000000
vn 0.371274 0.000003 -0.928523
vn 0.259068 -0.458720 -0.849977
vn 0.425476 -0.904970 -0.000000
vn 0.000000 -1.000000 0.000000
vn 0.000000 -1.000000 0.000000
vn -0.000000 -1.000000 0.000000
vn 0.000000 -1.000000 0.000000
vn -0.000000 1.000000 0.000000
vn -0.000000 1.000000 0.000000
vn 0.000000 1.000000 -0.000000
vn -0.000000 1.000000 -0.000000
vn -0.537904 0.307543 -0.784905
vn -0.406184 -0.713031 -0.571491
vn -0.000000 -1.000000 -0.000000
vn -0.000000 -1.000000 0.000000
vn 0.371274 -0.000000 0.928523
vn 0.259068 -0.458718 0.849977
vn 0.000000 1.000000 0.000000
vn 0.000000 1.000000 -0.000000
vn -0.450553 0.154585 -0.879264
vn -0.351066 -0.651951 -0.672096
vn -0.000000 -1.000000 -0.000000
vn -0.000000 -1.000000 -0.000000
vn 0.232506 -0.000000 0.972595
vn 0.216776 -0.174056 0.960579
vn 0.000000 1.000000 0.000000
vn 0.000000 1.000000 0.000000
vn 0.232506 0.000004 -0.972595
vn 0.216776 -0.174056 -0.960579
vn 0.000000 -1.000000 -0.000000
vn -0.000000 -1.000000 -0.000000
vn -0.450553 0.154585 0.879264
vn -0.351066 -0.651950 0.672097
vn -0.000000 1.000000 0.000000
vn -0.000000 1.000000 0.000000
vn -0.071132 -0.000002 -0.997467
vn -0.066362 -0.444550 -0.893292
vn 0.000000 -1.000000 0.000000
vn -0.000000 -1.000000 -0.000000
vn 0.000000 -1.000000 0.000000
vn 0.000000 -1.000000 -0.000000
vn 0.000000 -1.000000 0.000000
vn -0.071132 -0.000000 0.997467
vn -0.066362 -0.444550 0.893293
vn 0.000000 1.000000 0.000000
vn -0.000000 1.000000 0.000000
vn -0.000000 1.000000 -0.000000
vn 0.000000 1.000000 0.000000
vn 0.000000 1.000000 0.000000
vn -0.007030 -0.000002 -0.999975
vn -0.005349 -0.444112 -0.895955
vn -0.000000 -1.000000 -0.000000
vn 0.000000 -1.000000 0.000000
vn 0.000000 -1.000000 0.000000
vn 0.000000 -1.000000 0.000000
vn -0.000000 -1.000000 0.000000
vn -0.007030 -0.000000 0.999975
vn -0.005349 -0.444111 0.895956
vn 0.000000 1.000000 -0.000000
vn 0.000000 1.000000 -0.000000
vn -0.000000 1.000000 -0.000000
vn 0.000000 1.000000 0.000000
vn -0.000000 1.000000 0.000000
vn 0.087875 -0.000002 -0.996132
vn 0.083437 -0.453343 -0.887422
vn -0.000000 -1.000000 -0.000000
vn -0.000000 -1.000000 0.000000
vn 0.000000 -1.000000 0.000000
vn -0.000000 -1.000000 0.000000
vn -0.000000 -1.000000 0.000000
vn 0.087875 0.000000 0.996132
vn 0.083437 -0.453342 0.887423
vn -0.000000 1.000000 0.000000
vn 0.000000 1.000000 -0.000000
vn -0.000000 1.000000 -0.000000
vn -0.000000 1.000000 -0.000000
vn -0.000000 1.000000 0.000000
vn 0.170999 -0.000002 -0.985271
vn 0.155877 -0.461520 -0.873328
vn 0.000000 -1.000000 -0.000000
vn 0.000000 -1.000000 -0.000000
vn 0.000000 -1.000000 0.000000
vn 0.000000 -1.000000 0.000000
vn 0.000000 -1.000000 -0.000000
vn 0.170999 0.000000 0.985271
vn 0.155877 -0.461519 0.873328
vn -0.000000 1.000000 -0.000000
vn -0.000000 1.000000 -0.000000
vn -0.000000 1.000000 -0.000000
vn -0.000000 1.000000 0.000000
vn -0.000000 1.000000 0.000000
vn 0.190415 -0.000000 -0.981704
vn 0.165948 -0.451713 -0.876594
vn 0.000000 -1.000000 -0.000000
vn 0.000000 -1.000000 -0.000000
vn 0.000000 -1.000000 0.000000
vn 0.000000 -1.000000 -0.000000
vn -0.000000 -1.000000 0.000000
vn 0.190415 -0.000001 0.981704
vn 0.165948 -0.451713 0.876594
vn -0.000000 1.000000 -0.000000
vn -0.000000 1.000000 -0.000000
vn 0.000000 1.000000 -0.000000
vn -0.000000 1.000000 0.000000
vn -0.000000 1.000000 0.000000
vn 0.289215 -0.000000 -0.957264
vn 0.273760 -0.567735 -0.776358
vn 0.000000 -1.000000 -0.000000
vn 0.000000 -1.000000 -0.000000
vn 0.000000 -1.000000 0.000000
vn -0.000000 -1.000000 0.000000
vn -0.000000 -1.000000 -0.000000
vn 0.289215 -0.000003 0.957264
vn 0.273761 -0.567735 0.776359
vn -0.000000 1.000000 -0.000000
vn -0.000000 1.000000 -0.000000
vn -0.000000 1.000000 -0.000000
vn -0.000000 1.000000 0.000000
vn -0.000000 1.000000 -0.000000
vn 0.397587 0.000000 -0.917564
vn 0.361136 -0.461904 -0.810078
vn 0.000000 -1.000000 -0.000000
vn 0.000000 -1.000000 -0.000000
vn 0.000000 -1.000000 0.000000
vn -0.000000 -1.000000 -0.000000
vn -0.000000 -1.000000 -0.000000
vn 0.397587 -0.000004 0.917564
vn 0.361136 -0.461903 0.810078
vn -0.000000 1.000000 0.000000
vn -0.000000 1.000000 0.000000
vn -0.000000 1.000000 0.000000
vn -0.000000 1.000000 -0.000000
vn -0.000000 1.000000 -0.000000
vn 0.223844 0.158969 0.961573
vn 0.230393 0.640954 0.732187
vn 0.288698 0.957420 -0.000000
vn 0.230393 0.640954 -0.732186
vn 0.223844 0.158974 -0.961572
vn 0.312722 0.620454 0.719195
vn 0.202447 0.795084 0.571714
vn 0.138666 0.672910 0.726612
vn 0.136102 0.660603 0.738295
vn 0.077907 0.621490 0.779539
vn -0.005086 0.595140 0.803606
vn -0.062867 0.612547 0.787930
vn -0.121605 0.659795 0.741541
vn -0.171565 0.457583 0.872458
vn -0.205852 0.910088 0.359672
vn -0.221541 0.920819 0.320954
vn -0.299563 0.954076 -0.000000
vn -0.221541 0.920819 -0.320954
vn -0.205852 0.910088 -0.359672
vn -0.171565 0.457583 -0.872458
vn -0.121605 0.659795 -0.741541
vn -0.062867 0.612547 -0.787930
vn -0.005086 0.595141 -0.803605
vn 0.077907 0.621490 -0.779539
vn 0.136102 0.660603 -0.738295
vn 0.138666 0.672910 -0.726612
vn 0.202447 0.795084 -0.571713
vn 0.312722 0.620456 -0.719194
vn 0.197827 0.944762 0.261323
vn 0.144344 0.686482 0.712676
vn 0.204865 0.978790 -0.000000
vn 0.197827 0.944762 -0.261323
vn 0.144344 0.686482 -0.712676
vn 0.111268 0.868517 0.483009
vn 0.149697 0.927805 0.341715
vn 0.106387 0.846478 0.521687
vn 0.088412 0.827661 0.554221
vn 0.041832 0.804098 0.593023
vn -0.005089 0.793487 0.608566
vn -0.035277 0.799675 0.599396
vn -0.071215 0.822982 0.563585
vn -0.101361 0.853220 0.511606
vn -0.148312 0.962422 0.227479
vn -0.152291 0.955267 0.253519
vn -0.137745 0.990468 0.000000
vn -0.148312 0.962422 -0.227479
vn -0.152291 0.955267 -0.253519
vn -0.071215 0.822983 -0.563585
vn -0.101361 0.853221 -0.511606
vn -0.035276 0.799675 -0.599396
vn -0.005089 0.793487 -0.608566
vn 0.041832 0.804098 -0.593023
vn 0.088412 0.827661 -0.554220
vn 0.106387 0.846478 -0.521686
vn 0.111268 0.868517 -0.483008
vn 0.149697 0.927805 -0.341715
vn 0.341772 -0.939783 -0.000000
vn 0.307745 -0.836924 0.452606
vn 0.177235 -0.443679 0.878486
vn 0.273722 -0.756921 -0.593420
vn 0.186337 -0.647442 -0.738984
vn 0.153681 -0.605055 -0.781211
vn 0.127621 -0.607998 -0.783615
vn 0.062321 -0.598764 -0.798497
vn -0.006768 -0.590847 -0.806755
vn -0.052760 -0.590945 -0.804985
vn -0.106630 -0.598269 -0.794169
vn -0.151026 -0.608429 -0.779105
vn -0.301386 -0.765346 -0.568693
vn -0.307846 -0.795379 -0.522114
vn -0.345739 -0.938331 -0.000000
vn -0.307846 -0.795379 0.522114
vn -0.301386 -0.765346 0.568694
vn -0.151026 -0.608429 0.779106
vn -0.106630 -0.598269 0.794169
vn -0.052760 -0.590945 0.804985
vn -0.006768 -0.590847 0.806755
vn 0.062321 -0.598764 0.798497
vn 0.127621 -0.607997 0.783615
vn 0.153681 -0.605055 0.781211
vn 0.186337 -0.647441 0.738985
vn 0.273722 -0.756920 0.593421
vn 0.177234 -0.443681 -0.878485
vn 0.307745 -0.836924 -0.452606
s 1
g SurfBoard
usemtl initialShadingGroup
f 107/140/1 108/141/2 148/183/3 149/184/4
s 2
f 104/137/5 105/138/6 151/186/7 152/187/8
s 3
f 102/135/9 103/136/10 153/188/11 154/189/12
s 4
f 93/126/13 94/127/14 162/197/15 139/173/16
s 5
f 10/18/17 24/42/18 25/43/19 19/36/20
s 6
f 20/37/21 28/48/22 29/49/23 9/15/24
s 2
f 105/138/6 106/139/25 150/185/26 151/186/7
s 5
f 14/26/27 23/41/28 24/42/18 10/18/17
s 4
f 92/125/29 93/126/13 139/173/16 140/174/30
s 6
f 9/15/24 29/49/23 30/50/31 13/23/32
s 2
f 106/139/25 107/140/33 149/184/34 150/185/26
s 5
f 22/40/35 23/41/28 14/26/27 4/4/36
s 4
f 91/124/37 92/125/29 140/174/30 141/176/38
s 6
f 13/23/32 30/50/31 21/39/39 3/3/40
s 4
f 94/127/14 95/128/41 161/196/42 162/197/15
s 5
f 19/36/20 25/43/19 26/45/43 6/12/44
s 2
f 103/136/45 104/137/5 152/187/8 153/188/46
s 6
f 27/46/47 28/48/22 20/37/21 5/14/48
s 1
f 108/141/2 109/142/49 147/182/50 148/183/3
s 5
f 32/52/51 33/53/52 23/41/28 22/40/35
f 24/42/18 23/41/28 33/53/52 34/54/53
f 25/43/19 24/42/18 34/54/53 35/55/54
f 26/45/43 25/43/19 35/55/54 36/57/55
s 3
f 101/134/56 102/135/9 154/189/12 155/190/57
s 6
f 37/58/58 38/60/59 28/48/22 27/46/47
f 29/49/23 28/48/22 38/60/59 39/61/60
f 30/50/31 29/49/23 39/61/60 40/62/61
f 21/39/39 30/50/31 40/62/61 31/51/62
s 1
f 109/142/49 110/143/63 146/181/64 147/182/50
s 5
f 42/64/65 43/65/66 33/53/52 32/52/51
f 34/54/53 33/53/52 43/65/66 44/66/67
f 35/55/54 34/54/53 44/66/67 45/67/68
f 36/57/55 35/55/54 45/67/68 46/69/69
s 3
f 100/133/70 101/134/56 155/190/57 156/191/71
s 6
f 47/70/72 48/72/73 38/60/59 37/58/58
f 39/61/60 38/60/59 48/72/73 49/73/74
f 40/62/61 39/61/60 49/73/74 50/74/75
f 31/51/62 40/62/61 50/74/75 41/63/76
s 1
f 110/143/63 111/144/77 145/180/78 146/181/64
s 5
f 52/76/79 53/77/80 43/65/66 42/64/65
f 44/66/67 43/65/66 53/77/80 54/78/81
f 45/67/68 44/66/67 54/78/81 55/79/82
f 46/69/69 45/67/68 55/79/82 56/81/83
s 3
f 99/132/84 100/133/70 156/191/71 157/192/85
s 6
f 57/82/86 58/84/87 48/72/73 47/70/72
f 49/73/74 48/72/73 58/84/87 59/85/88
f 50/74/75 49/73/74 59/85/88 60/86/89
f 41/63/76 50/74/75 60/86/89 51/75/90
s 1
f 111/144/77 112/145/91 144/179/92 145/180/78
s 5
f 62/88/93 63/89/94 53/77/80 52/76/79
f 54/78/81 53/77/80 63/89/94 64/90/95
f 55/79/82 54/78/81 64/90/95 65/91/96
f 56/81/83 55/79/82 65/91/96 66/93/97
s 3
f 98/131/98 99/132/84 157/192/85 158/193/99
s 6
f 67/94/100 68/96/101 58/84/87 57/82/86
f 59/85/88 58/84/87 68/96/101 69/97/102
f 60/86/89 59/85/88 69/97/102 70/98/103
f 51/75/90 60/86/89 70/98/103 61/87/104
s 1
f 112/145/91 113/146/105 143/178/106 144/179/92
s 5
f 72/100/107 73/101/108 63/89/94 62/88/93
f 64/90/95 63/89/94 73/101/108 74/102/109
f 65/91/96 64/90/95 74/102/109 75/103/110
f 66/93/97 65/91/96 75/103/110 76/105/111
s 3
f 97/130/112 98/131/98 158/193/99 159/194/113
s 6
f 77/106/114 78/108/115 68/96/101 67/94/100
f 69/97/102 68/96/101 78/108/115 79/109/116
f 70/98/103 69/97/102 79/109/116 80/110/117
f 61/87/104 70/98/103 80/110/117 71/99/118
s 1
f 113/146/105 114/147/119 142/177/120 143/178/106
s 5
f 82/112/121 83/113/122 73/101/108 72/100/107
f 74/102/109 73/101/108 83/113/122 84/114/123
f 75/103/110 74/102/109 84/114/123 85/115/124
f 76/105/111 75/103/110 85/115/124 86/117/125
s 3
f 96/129/126 97/130/112 159/194/113 160/195/127
s 6
f 87/118/128 88/120/129 78/108/115 77/106/114
f 79/109/116 78/108/115 88/120/129 89/121/130
f 80/110/117 79/109/116 89/121/130 90/122/131
f 71/99/118 80/110/117 90/122/131 81/111/132
s 1
f 114/147/119 91/123/133 141/175/134 142/177/120
s 5
f 2/2/135 15/28/136 83/113/122 82/112/121
f 84/114/123 83/113/122 15/28/136 11/20/137
f 85/115/124 84/114/123 11/20/137 18/34/138
f 86/117/125 85/115/124 18/34/138 8/11/139
s 3
f 95/128/140 96/129/126 160/195/127 161/196/141
s 6
f 7/13/142 17/31/143 88/120/129 87/118/128
f 89/121/130 88/120/129 17/31/143 12/21/144
f 90/122/131 89/121/130 12/21/144 16/29/145
f 81/111/132 90/122/131 16/29/145 1/1/146
s 4
f 115/149/147 116/150/148 92/125/29 91/124/37
f 116/150/148 117/151/149 93/126/13 92/125/29
f 117/151/149 118/152/150 94/127/14 93/126/13
f 118/152/150 119/153/151 95/128/41 94/127/14
s 3
f 119/153/152 120/154/153 96/129/126 95/128/140
f 120/154/153 121/155/154 97/130/112 96/129/126
f 121/155/154 122/156/155 98/131/98 97/130/112
f 122/156/155 123/157/156 99/132/84 98/131/98
f 123/157/156 124/158/157 100/133/70 99/132/84
f 124/158/157 125/159/158 101/134/56 100/133/70
f 125/159/158 126/160/159 102/135/9 101/134/56
f 126/160/159 127/161/160 103/136/10 102/135/9
s 2
f 127/161/161 128/162/162 104/137/5 103/136/45
f 128/162/162 129/163/163 105/138/6 104/137/5
f 129/163/163 130/164/164 106/139/25 105/138/6
f 130/164/164 131/165/165 107/140/33 106/139/25
s 1
f 131/165/166 132/166/167 108/141/2 107/140/1
f 132/166/167 133/167/168 109/142/49 108/141/2
f 133/167/168 134/168/169 110/143/63 109/142/49
f 134/168/169 135/169/170 111/144/77 110/143/63
f 135/169/170 136/170/171 112/145/91 111/144/77
f 136/170/171 137/171/172 113/146/105 112/145/91
f 137/171/172 138/172/173 114/147/119 113/146/105
f 138/172/173 115/148/174 91/123/133 114/147/119
s 4
f 16/30/175 116/150/148 115/149/147 1/9/176
f 12/22/177 117/151/149 116/150/148 16/30/175
f 17/32/178 118/152/150 117/151/149 12/22/177
f 7/7/179 119/153/151 118/152/150 17/32/178
s 3
f 87/119/180 120/154/153 119/153/152 7/7/181
f 77/107/182 121/155/154 120/154/153 87/119/180
f 67/95/183 122/156/155 121/155/154 77/107/182
f 57/83/184 123/157/156 122/156/155 67/95/183
f 47/71/185 124/158/157 123/157/156 57/83/184
f 37/59/186 125/159/158 124/158/157 47/71/185
f 27/47/187 126/160/159 125/159/158 37/59/186
f 5/5/188 127/161/160 126/160/159 27/47/187
s 2
f 20/38/189 128/162/162 127/161/161 5/5/190
f 9/16/191 129/163/163 128/162/162 20/38/189
f 13/24/192 130/164/164 129/163/163 9/16/191
f 3/3/193 131/165/165 130/164/164 13/24/192
s 1
f 21/39/194 132/166/167 131/165/166 3/3/195
f 31/51/196 133/167/168 132/166/167 21/39/194
f 41/63/197 134/168/169 133/167/168 31/51/196
f 51/75/198 135/169/170 134/168/169 41/63/197
f 61/87/199 136/170/171 135/169/170 51/75/198
f 71/99/200 137/171/172 136/170/171 61/87/199
f 81/111/201 138/172/173 137/171/172 71/99/200
f 1/1/202 115/148/174 138/172/173 81/111/201
s 4
f 140/174/30 139/173/16 11/19/203 15/27/204
f 141/176/38 140/174/30 15/27/204 2/10/205
s 1
f 142/177/120 141/175/134 2/2/206 82/112/207
f 143/178/106 142/177/120 82/112/207 72/100/208
f 144/179/92 143/178/106 72/100/208 62/88/209
f 145/180/78 144/179/92 62/88/209 52/76/210
f 146/181/64 145/180/78 52/76/210 42/64/211
f 147/182/50 146/181/64 42/64/211 32/52/212
f 148/183/3 147/182/50 32/52/212 22/40/213
f 149/184/4 148/183/3 22/40/213 4/4/214
s 2
f 150/185/26 149/184/34 4/4/215 14/25/216
f 151/186/7 150/185/26 14/25/216 10/17/217
f 152/187/8 151/186/7 10/17/217 19/35/218
f 153/188/46 152/187/8 19/35/218 6/6/219
s 3
f 154/189/12 153/188/11 6/6/220 26/44/221
f 155/190/57 154/189/12 26/44/221 36/56/222
f 156/191/71 155/190/57 36/56/222 46/68/223
f 157/192/85 156/191/71 46/68/223 56/80/224
f 158/193/99 157/192/85 56/80/224 66/92/225
f 159/194/113 158/193/99 66/92/225 76/104/226
f 160/195/127 159/194/113 76/104/226 86/116/227
f 161/196/141 160/195/127 86/116/227 8/8/228
s 4
f 162/197/15 161/196/42 8/8/229 18/33/230
f 139/173/16 162/197/15 18/33/230 11/19/203
